# xmcd CD database file
#
# Track frame offsets:
#	150
#	15280
#	27825
#	40555
#	54997
#	67975
#	89687
#	104940
#	118475
#	132935
#	146385
#	160372
#	173582
#	185005
#	200822
#
# Disc length: 2864 seconds
#
# Revision: 0
# Processed by: cddbd v1.5.2PL0 Copyright (c) Steve Scherf et al.
# Submitted via: CDex 1.70beta2
#
DISCID=d40b2e0f
DTITLE=Scott English - Brandy
DYEAR=1998
DGENRE=Country
TTITLE0=Brandy
TTITLE1=Raggedy Ann
TTITLE2=He was Me, He Was You
TTITLE3=I Need Somebody
TTITLE4=Bend Me, Shape Me
TTITLE5=Denver's Calling
TTITLE6=Women In My Life
TTITLE7=Rags
TTITLE8=I'll Still Be Loving You
TTITLE9=Dancing Child
TTITLE10=Camp Following Rosie
TTITLE11=Sunshine Lady
TTITLE12=Ballad Of The Unloved
TTITLE13=Just People
TTITLE14=Mobile
EXTD=YEAR: 1998
EXTT0=
EXTT1=
EXTT2=
EXTT3=
EXTT4=
EXTT5=
EXTT6=
EXTT7=
EXTT8=
EXTT9=
EXTT10=
EXTT11=
EXTT12=
EXTT13=
EXTT14=
PLAYORDER=
